<?xml version="1.0" encoding="UTF-8" standalone="no"?>
<!DOCTYPE svg PUBLIC "-//W3C//DTD SVG 1.1//EN"
 "http://www.w3.org/Graphics/SVG/1.1/DTD/svg11.dtd">
<!-- Generated by graphviz version 2.40.1 (20161225.0304)
 -->
<!-- Title: dependencies Pages: 1 -->
<svg width="504pt" height="284pt"
 viewBox="0.00 0.00 504.00 284.00" xmlns="http://www.w3.org/2000/svg" xmlns:xlink="http://www.w3.org/1999/xlink">
<g id="graph0" class="graph" transform="scale(1 1) rotate(0) translate(4 280)">
<title>dependencies</title>
<polygon fill="#ffffff" stroke="transparent" points="-4,4 -4,-280 500,-280 500,4 -4,4"/>
<text text-anchor="start" x="227.0091" y="-42.4" font-family="sans-serif" font-weight="bold" font-size="14.00" fill="#000000">Legend</text>
<polygon fill="#ffffb3" stroke="transparent" points="14,-10 14,-30 34,-30 34,-10 14,-10"/>
<text text-anchor="start" x="37.629" y="-15.4" font-family="sans-serif" font-size="14.00" fill="#000000"> &#160;Declarations</text>
<polygon fill="#8dd3c7" stroke="transparent" points="127,-10 127,-30 147,-30 147,-10 127,-10"/>
<text text-anchor="start" x="150.7251" y="-15.4" font-family="sans-serif" font-size="14.00" fill="#000000"> &#160;Module</text>
<polygon fill="#80b1d3" stroke="transparent" points="213,-10 213,-30 233,-30 233,-10 213,-10"/>
<text text-anchor="start" x="236.7812" y="-15.4" font-family="sans-serif" font-size="14.00" fill="#000000"> &#160;Bootstrap</text>
<polygon fill="#fdb462" stroke="transparent" points="310,-10 310,-30 330,-30 330,-10 310,-10"/>
<text text-anchor="start" x="333.6732" y="-15.4" font-family="sans-serif" font-size="14.00" fill="#000000"> &#160;Providers</text>
<polygon fill="#fb8072" stroke="transparent" points="406,-10 406,-30 426,-30 426,-10 406,-10"/>
<text text-anchor="start" x="429.7258" y="-15.4" font-family="sans-serif" font-size="14.00" fill="#000000"> &#160;Exports</text>
<g id="clust1" class="cluster">
<title>cluster_EncuestaModule</title>
<polygon fill="none" stroke="#000000" stroke-dasharray="1,5" points="75.5,-70 75.5,-268 420.5,-268 420.5,-70 75.5,-70"/>
</g>
<g id="clust2" class="cluster">
<title>cluster_EncuestaModule_declarations</title>
<polygon fill="none" stroke="#000000" points="87.5,-78 87.5,-130 409.5,-130 409.5,-78 87.5,-78"/>
</g>
<g id="clust6" class="cluster">
<title>cluster_EncuestaModule_exports</title>
<polygon fill="none" stroke="#000000" points="83.5,-208 83.5,-260 412.5,-260 412.5,-208 83.5,-208"/>
</g>
<!-- EncuestaComponent -->
<g id="node1" class="node">
<title>EncuestaComponent</title>
<polygon fill="#ffffb3" stroke="#000000" points="401.3641,-122 269.6359,-122 269.6359,-86 401.3641,-86 401.3641,-122"/>
<text text-anchor="middle" x="335.5" y="-99.8" font-family="Times,serif" font-size="14.00" fill="#000000">EncuestaComponent</text>
</g>
<!-- EncuestaModule -->
<g id="node3" class="node">
<title>EncuestaModule</title>
<polygon fill="#8dd3c7" stroke="#000000" points="229.5814,-187 226.5814,-191 205.5814,-191 202.5814,-187 119.4186,-187 119.4186,-151 229.5814,-151 229.5814,-187"/>
<text text-anchor="middle" x="174.5" y="-164.8" font-family="Times,serif" font-size="14.00" fill="#000000">EncuestaModule</text>
</g>
<!-- EncuestaComponent&#45;&gt;EncuestaModule -->
<g id="edge1" class="edge">
<title>EncuestaComponent&#45;&gt;EncuestaModule</title>
<path fill="none" stroke="#000000" d="M357.4773,-122.0225C357.4773,-139.3734 357.4773,-163 357.4773,-163 357.4773,-163 239.8958,-163 239.8958,-163"/>
<polygon fill="#000000" stroke="#000000" points="239.8958,-159.5001 229.8958,-163 239.8958,-166.5001 239.8958,-159.5001"/>
</g>
<!-- SurveyEditorComponent -->
<g id="node2" class="node">
<title>SurveyEditorComponent</title>
<polygon fill="#ffffb3" stroke="#000000" points="251.4846,-122 95.5154,-122 95.5154,-86 251.4846,-86 251.4846,-122"/>
<text text-anchor="middle" x="173.5" y="-99.8" font-family="Times,serif" font-size="14.00" fill="#000000">SurveyEditorComponent</text>
</g>
<!-- SurveyEditorComponent&#45;&gt;EncuestaModule -->
<g id="edge2" class="edge">
<title>SurveyEditorComponent&#45;&gt;EncuestaModule</title>
<path fill="none" stroke="#000000" d="M174.5,-122.1061C174.5,-122.1061 174.5,-140.991 174.5,-140.991"/>
<polygon fill="#000000" stroke="#000000" points="171.0001,-140.9909 174.5,-150.991 178.0001,-140.991 171.0001,-140.9909"/>
</g>
<!-- EncuestaComponent  -->
<g id="node4" class="node">
<title>EncuestaComponent </title>
<polygon fill="#fb8072" stroke="#000000" points="404.3645,-252 268.6355,-252 268.6355,-216 404.3645,-216 404.3645,-252"/>
<text text-anchor="middle" x="336.5" y="-229.8" font-family="Times,serif" font-size="14.00" fill="#000000">EncuestaComponent </text>
</g>
<!-- EncuestaModule&#45;&gt;EncuestaComponent  -->
<g id="edge3" class="edge">
<title>EncuestaModule&#45;&gt;EncuestaComponent </title>
<path fill="none" stroke="#000000" stroke-dasharray="5,2" d="M229.8449,-175C268.6138,-175 313.5227,-175 313.5227,-175 313.5227,-175 313.5227,-205.9775 313.5227,-205.9775"/>
<polygon fill="#000000" stroke="#000000" points="310.0228,-205.9774 313.5227,-215.9775 317.0228,-205.9775 310.0228,-205.9774"/>
</g>
<!-- SurveyEditorComponent  -->
<g id="node5" class="node">
<title>SurveyEditorComponent </title>
<polygon fill="#fb8072" stroke="#000000" points="251.4853,-252 91.5147,-252 91.5147,-216 251.4853,-216 251.4853,-252"/>
<text text-anchor="middle" x="171.5" y="-229.8" font-family="Times,serif" font-size="14.00" fill="#000000">SurveyEditorComponent </text>
</g>
<!-- EncuestaModule&#45;&gt;SurveyEditorComponent  -->
<g id="edge4" class="edge">
<title>EncuestaModule&#45;&gt;SurveyEditorComponent </title>
<path fill="none" stroke="#000000" stroke-dasharray="5,2" d="M174.5,-187.1061C174.5,-187.1061 174.5,-205.991 174.5,-205.991"/>
<polygon fill="#000000" stroke="#000000" points="171.0001,-205.9909 174.5,-215.991 178.0001,-205.991 171.0001,-205.9909"/>
</g>
</g>
</svg>
