<?xml version="1.0" encoding="UTF-8" standalone="no"?>
<!DOCTYPE svg PUBLIC "-//W3C//DTD SVG 1.1//EN"
 "http://www.w3.org/Graphics/SVG/1.1/DTD/svg11.dtd">
<!-- Generated by graphviz version 2.40.1 (20161225.0304)
 -->
<!-- Title: dependencies Pages: 1 -->
<svg width="1131pt" height="211pt"
 viewBox="0.00 0.00 1131.00 211.00" xmlns="http://www.w3.org/2000/svg" xmlns:xlink="http://www.w3.org/1999/xlink">
<g id="graph0" class="graph" transform="scale(1 1) rotate(0) translate(4 207)">
<title>dependencies</title>
<polygon fill="#ffffff" stroke="transparent" points="-4,4 -4,-207 1127,-207 1127,4 -4,4"/>
<text text-anchor="start" x="540.5091" y="-42.4" font-family="sans-serif" font-weight="bold" font-size="14.00" fill="#000000">Legend</text>
<polygon fill="#ffffb3" stroke="transparent" points="327.5,-10 327.5,-30 347.5,-30 347.5,-10 327.5,-10"/>
<text text-anchor="start" x="351.129" y="-15.4" font-family="sans-serif" font-size="14.00" fill="#000000"> &#160;Declarations</text>
<polygon fill="#8dd3c7" stroke="transparent" points="440.5,-10 440.5,-30 460.5,-30 460.5,-10 440.5,-10"/>
<text text-anchor="start" x="464.2251" y="-15.4" font-family="sans-serif" font-size="14.00" fill="#000000"> &#160;Module</text>
<polygon fill="#80b1d3" stroke="transparent" points="526.5,-10 526.5,-30 546.5,-30 546.5,-10 526.5,-10"/>
<text text-anchor="start" x="550.2812" y="-15.4" font-family="sans-serif" font-size="14.00" fill="#000000"> &#160;Bootstrap</text>
<polygon fill="#fdb462" stroke="transparent" points="623.5,-10 623.5,-30 643.5,-30 643.5,-10 623.5,-10"/>
<text text-anchor="start" x="647.1732" y="-15.4" font-family="sans-serif" font-size="14.00" fill="#000000"> &#160;Providers</text>
<polygon fill="#fb8072" stroke="transparent" points="719.5,-10 719.5,-30 739.5,-30 739.5,-10 719.5,-10"/>
<text text-anchor="start" x="743.2258" y="-15.4" font-family="sans-serif" font-size="14.00" fill="#000000"> &#160;Exports</text>
<g id="clust1" class="cluster">
<title>cluster_ServiceModule</title>
<polygon fill="none" stroke="#000000" stroke-dasharray="1,5" points="8,-70 8,-195 1115,-195 1115,-70 8,-70"/>
</g>
<g id="clust6" class="cluster">
<title>cluster_ServiceModule_providers</title>
<polygon fill="none" stroke="#000000" points="16,-78 16,-130 1107,-130 1107,-78 16,-78"/>
</g>
<!-- MensajesService -->
<g id="node1" class="node">
<title>MensajesService</title>
<ellipse fill="#fdb462" stroke="#000000" cx="1023" cy="-104" rx="76.4188" ry="18"/>
<text text-anchor="middle" x="1023" y="-99.8" font-family="Times,serif" font-size="14.00" fill="#000000">MensajesService</text>
</g>
<!-- ServiceModule -->
<g id="node8" class="node">
<title>ServiceModule</title>
<polygon fill="#8dd3c7" stroke="#000000" points="596.5285,-187 593.5285,-191 572.5285,-191 569.5285,-187 495.4715,-187 495.4715,-151 596.5285,-151 596.5285,-187"/>
<text text-anchor="middle" x="546" y="-164.8" font-family="Times,serif" font-size="14.00" fill="#000000">ServiceModule</text>
</g>
<!-- MensajesService&#45;&gt;ServiceModule -->
<g id="edge1" class="edge">
<title>MensajesService&#45;&gt;ServiceModule</title>
<path fill="none" stroke="#000000" d="M1023,-122.2921C1023,-144.2057 1023,-178 1023,-178 1023,-178 606.5958,-178 606.5958,-178"/>
<polygon fill="#000000" stroke="#000000" points="606.5958,-174.5001 596.5958,-178 606.5957,-181.5001 606.5958,-174.5001"/>
</g>
<!-- NavbarService -->
<g id="node2" class="node">
<title>NavbarService</title>
<ellipse fill="#fdb462" stroke="#000000" cx="860" cy="-104" rx="68.317" ry="18"/>
<text text-anchor="middle" x="860" y="-99.8" font-family="Times,serif" font-size="14.00" fill="#000000">NavbarService</text>
</g>
<!-- NavbarService&#45;&gt;ServiceModule -->
<g id="edge2" class="edge">
<title>NavbarService&#45;&gt;ServiceModule</title>
<path fill="none" stroke="#000000" d="M860,-122.1061C860,-141.3391 860,-169 860,-169 860,-169 606.7985,-169 606.7985,-169"/>
<polygon fill="#000000" stroke="#000000" points="606.7985,-165.5001 596.7985,-169 606.7985,-172.5001 606.7985,-165.5001"/>
</g>
<!-- SettingsService -->
<g id="node3" class="node">
<title>SettingsService</title>
<ellipse fill="#fdb462" stroke="#000000" cx="702" cy="-104" rx="71.221" ry="18"/>
<text text-anchor="middle" x="702" y="-99.8" font-family="Times,serif" font-size="14.00" fill="#000000">SettingsService</text>
</g>
<!-- SettingsService&#45;&gt;ServiceModule -->
<g id="edge3" class="edge">
<title>SettingsService&#45;&gt;ServiceModule</title>
<path fill="none" stroke="#000000" d="M702,-122.027C702,-138.3976 702,-160 702,-160 702,-160 606.6487,-160 606.6487,-160"/>
<polygon fill="#000000" stroke="#000000" points="606.6488,-156.5001 596.6487,-160 606.6487,-163.5001 606.6488,-156.5001"/>
</g>
<!-- SharedService -->
<g id="node4" class="node">
<title>SharedService</title>
<ellipse fill="#fdb462" stroke="#000000" cx="546" cy="-104" rx="66.6113" ry="18"/>
<text text-anchor="middle" x="546" y="-99.8" font-family="Times,serif" font-size="14.00" fill="#000000">SharedService</text>
</g>
<!-- SharedService&#45;&gt;ServiceModule -->
<g id="edge4" class="edge">
<title>SharedService&#45;&gt;ServiceModule</title>
<path fill="none" stroke="#000000" d="M546,-122.1061C546,-122.1061 546,-140.991 546,-140.991"/>
<polygon fill="#000000" stroke="#000000" points="542.5001,-140.9909 546,-150.991 549.5001,-140.991 542.5001,-140.9909"/>
</g>
<!-- SidebarService -->
<g id="node5" class="node">
<title>SidebarService</title>
<ellipse fill="#fdb462" stroke="#000000" cx="392" cy="-104" rx="69.4781" ry="18"/>
<text text-anchor="middle" x="392" y="-99.8" font-family="Times,serif" font-size="14.00" fill="#000000">SidebarService</text>
</g>
<!-- SidebarService&#45;&gt;ServiceModule -->
<g id="edge5" class="edge">
<title>SidebarService&#45;&gt;ServiceModule</title>
<path fill="none" stroke="#000000" d="M392,-122.027C392,-138.3976 392,-160 392,-160 392,-160 485.1478,-160 485.1478,-160"/>
<polygon fill="#000000" stroke="#000000" points="485.1479,-163.5001 495.1478,-160 485.1478,-156.5001 485.1479,-163.5001"/>
</g>
<!-- TodoService -->
<g id="node6" class="node">
<title>TodoService</title>
<ellipse fill="#fdb462" stroke="#000000" cx="244" cy="-104" rx="60.2537" ry="18"/>
<text text-anchor="middle" x="244" y="-99.8" font-family="Times,serif" font-size="14.00" fill="#000000">TodoService</text>
</g>
<!-- TodoService&#45;&gt;ServiceModule -->
<g id="edge6" class="edge">
<title>TodoService&#45;&gt;ServiceModule</title>
<path fill="none" stroke="#000000" d="M244,-122.1061C244,-141.3391 244,-169 244,-169 244,-169 485.452,-169 485.452,-169"/>
<polygon fill="#000000" stroke="#000000" points="485.452,-172.5001 495.452,-169 485.452,-165.5001 485.452,-172.5001"/>
</g>
<!-- UsuarioService -->
<g id="node7" class="node">
<title>UsuarioService</title>
<ellipse fill="#fdb462" stroke="#000000" cx="95" cy="-104" rx="70.622" ry="18"/>
<text text-anchor="middle" x="95" y="-99.8" font-family="Times,serif" font-size="14.00" fill="#000000">UsuarioService</text>
</g>
<!-- UsuarioService&#45;&gt;ServiceModule -->
<g id="edge7" class="edge">
<title>UsuarioService&#45;&gt;ServiceModule</title>
<path fill="none" stroke="#000000" d="M95,-122.2921C95,-144.2057 95,-178 95,-178 95,-178 485.1413,-178 485.1413,-178"/>
<polygon fill="#000000" stroke="#000000" points="485.1413,-181.5001 495.1413,-178 485.1412,-174.5001 485.1413,-181.5001"/>
</g>
</g>
</svg>
