<?xml version="1.0" encoding="UTF-8" standalone="no"?>
<!DOCTYPE svg PUBLIC "-//W3C//DTD SVG 1.1//EN"
 "http://www.w3.org/Graphics/SVG/1.1/DTD/svg11.dtd">
<!-- Generated by graphviz version 2.40.1 (20161225.0304)
 -->
<!-- Title: dependencies Pages: 1 -->
<svg width="1184pt" height="284pt"
 viewBox="0.00 0.00 1184.00 284.00" xmlns="http://www.w3.org/2000/svg" xmlns:xlink="http://www.w3.org/1999/xlink">
<g id="graph0" class="graph" transform="scale(1 1) rotate(0) translate(4 280)">
<title>dependencies</title>
<polygon fill="#ffffff" stroke="transparent" points="-4,4 -4,-280 1180,-280 1180,4 -4,4"/>
<text text-anchor="start" x="567.0091" y="-42.4" font-family="sans-serif" font-weight="bold" font-size="14.00" fill="#000000">Legend</text>
<polygon fill="#ffffb3" stroke="transparent" points="354,-10 354,-30 374,-30 374,-10 354,-10"/>
<text text-anchor="start" x="377.629" y="-15.4" font-family="sans-serif" font-size="14.00" fill="#000000"> &#160;Declarations</text>
<polygon fill="#8dd3c7" stroke="transparent" points="467,-10 467,-30 487,-30 487,-10 467,-10"/>
<text text-anchor="start" x="490.7251" y="-15.4" font-family="sans-serif" font-size="14.00" fill="#000000"> &#160;Module</text>
<polygon fill="#80b1d3" stroke="transparent" points="553,-10 553,-30 573,-30 573,-10 553,-10"/>
<text text-anchor="start" x="576.7812" y="-15.4" font-family="sans-serif" font-size="14.00" fill="#000000"> &#160;Bootstrap</text>
<polygon fill="#fdb462" stroke="transparent" points="650,-10 650,-30 670,-30 670,-10 650,-10"/>
<text text-anchor="start" x="673.6732" y="-15.4" font-family="sans-serif" font-size="14.00" fill="#000000"> &#160;Providers</text>
<polygon fill="#fb8072" stroke="transparent" points="746,-10 746,-30 766,-30 766,-10 746,-10"/>
<text text-anchor="start" x="769.7258" y="-15.4" font-family="sans-serif" font-size="14.00" fill="#000000"> &#160;Exports</text>
<g id="clust1" class="cluster">
<title>cluster_AppModule</title>
<polygon fill="none" stroke="#000000" stroke-dasharray="1,5" points="8,-70 8,-268 1168,-268 1168,-70 8,-70"/>
</g>
<g id="clust2" class="cluster">
<title>cluster_AppModule_declarations</title>
<polygon fill="none" stroke="#000000" points="380,-78 380,-130 1160,-130 1160,-78 380,-78"/>
</g>
<g id="clust8" class="cluster">
<title>cluster_AppModule_imports</title>
<polygon fill="none" stroke="#000000" points="16,-78 16,-130 372,-130 372,-78 16,-78"/>
</g>
<g id="clust10" class="cluster">
<title>cluster_AppModule_bootstrap</title>
<polygon fill="none" stroke="#000000" points="459,-208 459,-260 583,-260 583,-208 459,-208"/>
</g>
<!-- AppComponent -->
<g id="node1" class="node">
<title>AppComponent</title>
<polygon fill="#ffffb3" stroke="#000000" points="1151.9399,-122 1046.0601,-122 1046.0601,-86 1151.9399,-86 1151.9399,-122"/>
<text text-anchor="middle" x="1099" y="-99.8" font-family="Times,serif" font-size="14.00" fill="#000000">AppComponent</text>
</g>
<!-- AppModule -->
<g id="node6" class="node">
<title>AppModule</title>
<polygon fill="#8dd3c7" stroke="#000000" points="562.6571,-187 559.6571,-191 538.6571,-191 535.6571,-187 479.3429,-187 479.3429,-151 562.6571,-151 562.6571,-187"/>
<text text-anchor="middle" x="521" y="-164.8" font-family="Times,serif" font-size="14.00" fill="#000000">AppModule</text>
</g>
<!-- AppComponent&#45;&gt;AppModule -->
<g id="edge1" class="edge">
<title>AppComponent&#45;&gt;AppModule</title>
<path fill="none" stroke="#000000" d="M1099,-122.2921C1099,-144.2057 1099,-178 1099,-178 1099,-178 573.0339,-178 573.0339,-178"/>
<polygon fill="#000000" stroke="#000000" points="573.034,-174.5001 563.0339,-178 573.0339,-181.5001 573.034,-174.5001"/>
</g>
<!-- DocumentacionComponent -->
<g id="node2" class="node">
<title>DocumentacionComponent</title>
<polygon fill="#ffffb3" stroke="#000000" points="1027.9692,-122 858.0308,-122 858.0308,-86 1027.9692,-86 1027.9692,-122"/>
<text text-anchor="middle" x="943" y="-99.8" font-family="Times,serif" font-size="14.00" fill="#000000">DocumentacionComponent</text>
</g>
<!-- DocumentacionComponent&#45;&gt;AppModule -->
<g id="edge2" class="edge">
<title>DocumentacionComponent&#45;&gt;AppModule</title>
<path fill="none" stroke="#000000" d="M943,-122.1061C943,-141.3391 943,-169 943,-169 943,-169 573.0058,-169 573.0058,-169"/>
<polygon fill="#000000" stroke="#000000" points="573.0058,-165.5001 563.0058,-169 573.0057,-172.5001 573.0058,-165.5001"/>
</g>
<!-- EncuestaPublicaComponent -->
<g id="node3" class="node">
<title>EncuestaPublicaComponent</title>
<polygon fill="#ffffb3" stroke="#000000" points="839.8571,-122 666.1429,-122 666.1429,-86 839.8571,-86 839.8571,-122"/>
<text text-anchor="middle" x="753" y="-99.8" font-family="Times,serif" font-size="14.00" fill="#000000">EncuestaPublicaComponent</text>
</g>
<!-- EncuestaPublicaComponent&#45;&gt;AppModule -->
<g id="edge3" class="edge">
<title>EncuestaPublicaComponent&#45;&gt;AppModule</title>
<path fill="none" stroke="#000000" d="M753,-122.027C753,-138.3976 753,-160 753,-160 753,-160 572.7449,-160 572.7449,-160"/>
<polygon fill="#000000" stroke="#000000" points="572.7449,-156.5001 562.7449,-160 572.7449,-163.5001 572.7449,-156.5001"/>
</g>
<!-- LoginComponent -->
<g id="node4" class="node">
<title>LoginComponent</title>
<polygon fill="#ffffb3" stroke="#000000" points="648.2758,-122 533.7242,-122 533.7242,-86 648.2758,-86 648.2758,-122"/>
<text text-anchor="middle" x="591" y="-99.8" font-family="Times,serif" font-size="14.00" fill="#000000">LoginComponent</text>
</g>
<!-- LoginComponent&#45;&gt;AppModule -->
<g id="edge4" class="edge">
<title>LoginComponent&#45;&gt;AppModule</title>
<path fill="none" stroke="#000000" d="M548.2202,-122.1061C548.2202,-122.1061 548.2202,-140.991 548.2202,-140.991"/>
<polygon fill="#000000" stroke="#000000" points="544.7203,-140.9909 548.2202,-150.991 551.7203,-140.991 544.7203,-140.9909"/>
</g>
<!-- RegisterComponent -->
<g id="node5" class="node">
<title>RegisterComponent</title>
<polygon fill="#ffffb3" stroke="#000000" points="515.9846,-122 388.0154,-122 388.0154,-86 515.9846,-86 515.9846,-122"/>
<text text-anchor="middle" x="452" y="-99.8" font-family="Times,serif" font-size="14.00" fill="#000000">RegisterComponent</text>
</g>
<!-- RegisterComponent&#45;&gt;AppModule -->
<g id="edge5" class="edge">
<title>RegisterComponent&#45;&gt;AppModule</title>
<path fill="none" stroke="#000000" d="M497.5821,-122.1061C497.5821,-122.1061 497.5821,-140.991 497.5821,-140.991"/>
<polygon fill="#000000" stroke="#000000" points="494.0821,-140.9909 497.5821,-150.991 501.0821,-140.991 494.0821,-140.9909"/>
</g>
<!-- AppComponent  -->
<g id="node10" class="node">
<title>AppComponent </title>
<polygon fill="#80b1d3" stroke="#000000" points="575.439,-252 466.561,-252 466.561,-216 575.439,-216 575.439,-252"/>
<text text-anchor="middle" x="521" y="-229.8" font-family="Times,serif" font-size="14.00" fill="#000000">AppComponent </text>
</g>
<!-- AppModule&#45;&gt;AppComponent  -->
<g id="edge9" class="edge">
<title>AppModule&#45;&gt;AppComponent </title>
<path fill="none" stroke="#000000" stroke-dasharray="1,5" d="M521,-187.1061C521,-187.1061 521,-205.991 521,-205.991"/>
<polygon fill="#000000" stroke="#000000" points="517.5001,-205.9909 521,-215.991 524.5001,-205.991 517.5001,-205.9909"/>
</g>
<!-- EncuestaModule -->
<g id="node7" class="node">
<title>EncuestaModule</title>
<polygon fill="#8dd3c7" stroke="#000000" points="364.0814,-122 361.0814,-126 340.0814,-126 337.0814,-122 253.9186,-122 253.9186,-86 364.0814,-86 364.0814,-122"/>
<text text-anchor="middle" x="309" y="-99.8" font-family="Times,serif" font-size="14.00" fill="#000000">EncuestaModule</text>
</g>
<!-- EncuestaModule&#45;&gt;AppModule -->
<g id="edge6" class="edge">
<title>EncuestaModule&#45;&gt;AppModule</title>
<path fill="none" stroke="#000000" d="M309,-122.027C309,-138.3976 309,-160 309,-160 309,-160 469.1156,-160 469.1156,-160"/>
<polygon fill="#000000" stroke="#000000" points="469.1157,-163.5001 479.1156,-160 469.1156,-156.5001 469.1157,-163.5001"/>
</g>
<!-- PagesModule -->
<g id="node8" class="node">
<title>PagesModule</title>
<polygon fill="#8dd3c7" stroke="#000000" points="236.2064,-122 233.2064,-126 212.2064,-126 209.2064,-122 143.7936,-122 143.7936,-86 236.2064,-86 236.2064,-122"/>
<text text-anchor="middle" x="190" y="-99.8" font-family="Times,serif" font-size="14.00" fill="#000000">PagesModule</text>
</g>
<!-- PagesModule&#45;&gt;AppModule -->
<g id="edge7" class="edge">
<title>PagesModule&#45;&gt;AppModule</title>
<path fill="none" stroke="#000000" d="M190,-122.1061C190,-141.3391 190,-169 190,-169 190,-169 469.0786,-169 469.0786,-169"/>
<polygon fill="#000000" stroke="#000000" points="469.0787,-172.5001 479.0786,-169 469.0786,-165.5001 469.0787,-172.5001"/>
</g>
<!-- ServiceModule -->
<g id="node9" class="node">
<title>ServiceModule</title>
<polygon fill="#8dd3c7" stroke="#000000" points="125.5285,-122 122.5285,-126 101.5285,-126 98.5285,-122 24.4715,-122 24.4715,-86 125.5285,-86 125.5285,-122"/>
<text text-anchor="middle" x="75" y="-99.8" font-family="Times,serif" font-size="14.00" fill="#000000">ServiceModule</text>
</g>
<!-- ServiceModule&#45;&gt;AppModule -->
<g id="edge8" class="edge">
<title>ServiceModule&#45;&gt;AppModule</title>
<path fill="none" stroke="#000000" d="M75,-122.2921C75,-144.2057 75,-178 75,-178 75,-178 469.0414,-178 469.0414,-178"/>
<polygon fill="#000000" stroke="#000000" points="469.0414,-181.5001 479.0414,-178 469.0414,-174.5001 469.0414,-181.5001"/>
</g>
</g>
</svg>
