<?xml version="1.0" encoding="UTF-8" standalone="no"?>
<!DOCTYPE svg PUBLIC "-//W3C//DTD SVG 1.1//EN"
 "http://www.w3.org/Graphics/SVG/1.1/DTD/svg11.dtd">
<!-- Generated by graphviz version 2.40.1 (20161225.0304)
 -->
<!-- Title: dependencies Pages: 1 -->
<svg width="683pt" height="284pt"
 viewBox="0.00 0.00 683.00 284.00" xmlns="http://www.w3.org/2000/svg" xmlns:xlink="http://www.w3.org/1999/xlink">
<g id="graph0" class="graph" transform="scale(1 1) rotate(0) translate(4 280)">
<title>dependencies</title>
<polygon fill="#ffffff" stroke="transparent" points="-4,4 -4,-280 679,-280 679,4 -4,4"/>
<text text-anchor="start" x="316.5091" y="-42.4" font-family="sans-serif" font-weight="bold" font-size="14.00" fill="#000000">Legend</text>
<polygon fill="#ffffb3" stroke="transparent" points="103.5,-10 103.5,-30 123.5,-30 123.5,-10 103.5,-10"/>
<text text-anchor="start" x="127.129" y="-15.4" font-family="sans-serif" font-size="14.00" fill="#000000"> &#160;Declarations</text>
<polygon fill="#8dd3c7" stroke="transparent" points="216.5,-10 216.5,-30 236.5,-30 236.5,-10 216.5,-10"/>
<text text-anchor="start" x="240.2251" y="-15.4" font-family="sans-serif" font-size="14.00" fill="#000000"> &#160;Module</text>
<polygon fill="#80b1d3" stroke="transparent" points="302.5,-10 302.5,-30 322.5,-30 322.5,-10 302.5,-10"/>
<text text-anchor="start" x="326.2812" y="-15.4" font-family="sans-serif" font-size="14.00" fill="#000000"> &#160;Bootstrap</text>
<polygon fill="#fdb462" stroke="transparent" points="399.5,-10 399.5,-30 419.5,-30 419.5,-10 399.5,-10"/>
<text text-anchor="start" x="423.1732" y="-15.4" font-family="sans-serif" font-size="14.00" fill="#000000"> &#160;Providers</text>
<polygon fill="#fb8072" stroke="transparent" points="495.5,-10 495.5,-30 515.5,-30 515.5,-10 495.5,-10"/>
<text text-anchor="start" x="519.2258" y="-15.4" font-family="sans-serif" font-size="14.00" fill="#000000"> &#160;Exports</text>
<g id="clust1" class="cluster">
<title>cluster_ShareModule</title>
<polygon fill="none" stroke="#000000" stroke-dasharray="1,5" points="8,-70 8,-268 667,-268 667,-70 8,-70"/>
</g>
<g id="clust2" class="cluster">
<title>cluster_ShareModule_declarations</title>
<polygon fill="none" stroke="#000000" points="24,-78 24,-130 654,-130 654,-78 24,-78"/>
</g>
<g id="clust8" class="cluster">
<title>cluster_ShareModule_exports</title>
<polygon fill="none" stroke="#000000" points="16,-208 16,-260 659,-260 659,-208 16,-208"/>
</g>
<!-- BreadcrumbsComponent -->
<g id="node1" class="node">
<title>BreadcrumbsComponent</title>
<polygon fill="#ffffb3" stroke="#000000" points="645.9692,-122 490.0308,-122 490.0308,-86 645.9692,-86 645.9692,-122"/>
<text text-anchor="middle" x="568" y="-99.8" font-family="Times,serif" font-size="14.00" fill="#000000">BreadcrumbsComponent</text>
</g>
<!-- ShareModule -->
<g id="node5" class="node">
<title>ShareModule</title>
<polygon fill="#8dd3c7" stroke="#000000" points="300.9232,-187 297.9232,-191 276.9232,-191 273.9232,-187 209.0768,-187 209.0768,-151 300.9232,-151 300.9232,-187"/>
<text text-anchor="middle" x="255" y="-164.8" font-family="Times,serif" font-size="14.00" fill="#000000">ShareModule</text>
</g>
<!-- BreadcrumbsComponent&#45;&gt;ShareModule -->
<g id="edge1" class="edge">
<title>BreadcrumbsComponent&#45;&gt;ShareModule</title>
<path fill="none" stroke="#000000" d="M594.4115,-122.2667C594.4115,-140.5552 594.4115,-166 594.4115,-166 594.4115,-166 310.7745,-166 310.7745,-166"/>
<polygon fill="#000000" stroke="#000000" points="310.7746,-162.5001 300.7745,-166 310.7745,-169.5001 310.7746,-162.5001"/>
</g>
<!-- HeaderComponent -->
<g id="node2" class="node">
<title>HeaderComponent</title>
<polygon fill="#ffffb3" stroke="#000000" points="471.7437,-122 350.2563,-122 350.2563,-86 471.7437,-86 471.7437,-122"/>
<text text-anchor="middle" x="411" y="-99.8" font-family="Times,serif" font-size="14.00" fill="#000000">HeaderComponent</text>
</g>
<!-- HeaderComponent&#45;&gt;ShareModule -->
<g id="edge2" class="edge">
<title>HeaderComponent&#45;&gt;ShareModule</title>
<path fill="none" stroke="#000000" d="M431.2906,-122.0091C431.2906,-138.0494 431.2906,-159 431.2906,-159 431.2906,-159 310.8581,-159 310.8581,-159"/>
<polygon fill="#000000" stroke="#000000" points="310.8581,-155.5001 300.8581,-159 310.858,-162.5001 310.8581,-155.5001"/>
</g>
<!-- NopagefoundComponent -->
<g id="node3" class="node">
<title>NopagefoundComponent</title>
<polygon fill="#ffffb3" stroke="#000000" points="331.5295,-122 174.4705,-122 174.4705,-86 331.5295,-86 331.5295,-122"/>
<text text-anchor="middle" x="253" y="-99.8" font-family="Times,serif" font-size="14.00" fill="#000000">NopagefoundComponent</text>
</g>
<!-- NopagefoundComponent&#45;&gt;ShareModule -->
<g id="edge3" class="edge">
<title>NopagefoundComponent&#45;&gt;ShareModule</title>
<path fill="none" stroke="#000000" d="M255,-122.1061C255,-122.1061 255,-140.991 255,-140.991"/>
<polygon fill="#000000" stroke="#000000" points="251.5001,-140.9909 255,-150.991 258.5001,-140.991 251.5001,-140.9909"/>
</g>
<!-- SidebarComponent -->
<g id="node4" class="node">
<title>SidebarComponent</title>
<polygon fill="#ffffb3" stroke="#000000" points="156.0954,-122 31.9046,-122 31.9046,-86 156.0954,-86 156.0954,-122"/>
<text text-anchor="middle" x="94" y="-99.8" font-family="Times,serif" font-size="14.00" fill="#000000">SidebarComponent</text>
</g>
<!-- SidebarComponent&#45;&gt;ShareModule -->
<g id="edge4" class="edge">
<title>SidebarComponent&#45;&gt;ShareModule</title>
<path fill="none" stroke="#000000" d="M111.8492,-122.0225C111.8492,-139.3734 111.8492,-163 111.8492,-163 111.8492,-163 198.9182,-163 198.9182,-163"/>
<polygon fill="#000000" stroke="#000000" points="198.9183,-166.5001 208.9182,-163 198.9182,-159.5001 198.9183,-166.5001"/>
</g>
<!-- BreadcrumbsComponent  -->
<g id="node6" class="node">
<title>BreadcrumbsComponent </title>
<polygon fill="#fb8072" stroke="#000000" points="650.9699,-252 491.0301,-252 491.0301,-216 650.9699,-216 650.9699,-252"/>
<text text-anchor="middle" x="571" y="-229.8" font-family="Times,serif" font-size="14.00" fill="#000000">BreadcrumbsComponent </text>
</g>
<!-- ShareModule&#45;&gt;BreadcrumbsComponent  -->
<g id="edge5" class="edge">
<title>ShareModule&#45;&gt;BreadcrumbsComponent </title>
<path fill="none" stroke="#000000" stroke-dasharray="5,2" d="M300.9271,-173C382.1918,-173 542.8385,-173 542.8385,-173 542.8385,-173 542.8385,-205.698 542.8385,-205.698"/>
<polygon fill="#000000" stroke="#000000" points="539.3386,-205.698 542.8385,-215.698 546.3386,-205.698 539.3386,-205.698"/>
</g>
<!-- HeaderComponent  -->
<g id="node7" class="node">
<title>HeaderComponent </title>
<polygon fill="#fb8072" stroke="#000000" points="473.7436,-252 348.2564,-252 348.2564,-216 473.7436,-216 473.7436,-252"/>
<text text-anchor="middle" x="411" y="-229.8" font-family="Times,serif" font-size="14.00" fill="#000000">HeaderComponent </text>
</g>
<!-- ShareModule&#45;&gt;HeaderComponent  -->
<g id="edge6" class="edge">
<title>ShareModule&#45;&gt;HeaderComponent </title>
<path fill="none" stroke="#000000" stroke-dasharray="5,2" d="M300.945,-180C340.3154,-180 390.7094,-180 390.7094,-180 390.7094,-180 390.7094,-205.7181 390.7094,-205.7181"/>
<polygon fill="#000000" stroke="#000000" points="387.2095,-205.718 390.7094,-215.7181 394.2095,-205.7181 387.2095,-205.718"/>
</g>
<!-- NopagefoundComponent  -->
<g id="node8" class="node">
<title>NopagefoundComponent </title>
<polygon fill="#fb8072" stroke="#000000" points="330.5288,-252 169.4712,-252 169.4712,-216 330.5288,-216 330.5288,-252"/>
<text text-anchor="middle" x="250" y="-229.8" font-family="Times,serif" font-size="14.00" fill="#000000">NopagefoundComponent </text>
</g>
<!-- ShareModule&#45;&gt;NopagefoundComponent  -->
<g id="edge7" class="edge">
<title>ShareModule&#45;&gt;NopagefoundComponent </title>
<path fill="none" stroke="#000000" stroke-dasharray="5,2" d="M255,-187.1061C255,-187.1061 255,-205.991 255,-205.991"/>
<polygon fill="#000000" stroke="#000000" points="251.5001,-205.9909 255,-215.991 258.5001,-205.991 251.5001,-205.9909"/>
</g>
<!-- SidebarComponent  -->
<g id="node9" class="node">
<title>SidebarComponent </title>
<polygon fill="#fb8072" stroke="#000000" points="151.596,-252 24.404,-252 24.404,-216 151.596,-216 151.596,-252"/>
<text text-anchor="middle" x="88" y="-229.8" font-family="Times,serif" font-size="14.00" fill="#000000">SidebarComponent </text>
</g>
<!-- ShareModule&#45;&gt;SidebarComponent  -->
<g id="edge8" class="edge">
<title>ShareModule&#45;&gt;SidebarComponent </title>
<path fill="none" stroke="#000000" stroke-dasharray="5,2" d="M209.2686,-175C155.0359,-175 71.9008,-175 71.9008,-175 71.9008,-175 71.9008,-205.9775 71.9008,-205.9775"/>
<polygon fill="#000000" stroke="#000000" points="68.4009,-205.9774 71.9008,-215.9775 75.4009,-205.9775 68.4009,-205.9774"/>
</g>
</g>
</svg>
