<?xml version="1.0" encoding="UTF-8" standalone="no"?>
<!DOCTYPE svg PUBLIC "-//W3C//DTD SVG 1.1//EN"
 "http://www.w3.org/Graphics/SVG/1.1/DTD/svg11.dtd">
<!-- Generated by graphviz version 2.40.1 (20161225.0304)
 -->
<!-- Title: dependencies Pages: 1 -->
<svg width="4207pt" height="284pt"
 viewBox="0.00 0.00 4207.00 284.00" xmlns="http://www.w3.org/2000/svg" xmlns:xlink="http://www.w3.org/1999/xlink">
<g id="graph0" class="graph" transform="scale(1 1) rotate(0) translate(4 280)">
<title>dependencies</title>
<polygon fill="#ffffff" stroke="transparent" points="-4,4 -4,-280 4203,-280 4203,4 -4,4"/>
<text text-anchor="start" x="2078.5091" y="-42.4" font-family="sans-serif" font-weight="bold" font-size="14.00" fill="#000000">Legend</text>
<polygon fill="#ffffb3" stroke="transparent" points="1865.5,-10 1865.5,-30 1885.5,-30 1885.5,-10 1865.5,-10"/>
<text text-anchor="start" x="1889.129" y="-15.4" font-family="sans-serif" font-size="14.00" fill="#000000"> &#160;Declarations</text>
<polygon fill="#8dd3c7" stroke="transparent" points="1978.5,-10 1978.5,-30 1998.5,-30 1998.5,-10 1978.5,-10"/>
<text text-anchor="start" x="2002.2251" y="-15.4" font-family="sans-serif" font-size="14.00" fill="#000000"> &#160;Module</text>
<polygon fill="#80b1d3" stroke="transparent" points="2064.5,-10 2064.5,-30 2084.5,-30 2084.5,-10 2064.5,-10"/>
<text text-anchor="start" x="2088.2812" y="-15.4" font-family="sans-serif" font-size="14.00" fill="#000000"> &#160;Bootstrap</text>
<polygon fill="#fdb462" stroke="transparent" points="2161.5,-10 2161.5,-30 2181.5,-30 2181.5,-10 2161.5,-10"/>
<text text-anchor="start" x="2185.1732" y="-15.4" font-family="sans-serif" font-size="14.00" fill="#000000"> &#160;Providers</text>
<polygon fill="#fb8072" stroke="transparent" points="2257.5,-10 2257.5,-30 2277.5,-30 2277.5,-10 2257.5,-10"/>
<text text-anchor="start" x="2281.2258" y="-15.4" font-family="sans-serif" font-size="14.00" fill="#000000"> &#160;Exports</text>
<g id="clust1" class="cluster">
<title>cluster_PagesModule</title>
<polygon fill="none" stroke="#000000" stroke-dasharray="1,5" points="8,-70 8,-268 4191,-268 4191,-70 8,-70"/>
</g>
<g id="clust2" class="cluster">
<title>cluster_PagesModule_declarations</title>
<polygon fill="none" stroke="#000000" points="559,-78 559,-130 4183,-130 4183,-78 559,-78"/>
</g>
<g id="clust26" class="cluster">
<title>cluster_PagesModule_imports</title>
<polygon fill="none" stroke="#000000" points="16,-78 16,-130 551,-130 551,-78 16,-78"/>
</g>
<g id="clust27" class="cluster">
<title>cluster_PagesModule_exports</title>
<polygon fill="none" stroke="#000000" points="1762,-208 1762,-260 2232,-260 2232,-208 1762,-208"/>
</g>
<!-- AccoutSettingsComponent -->
<g id="node1" class="node">
<title>AccoutSettingsComponent</title>
<polygon fill="#ffffb3" stroke="#000000" points="4175.3724,-122 4008.6276,-122 4008.6276,-86 4175.3724,-86 4175.3724,-122"/>
<text text-anchor="middle" x="4092" y="-99.8" font-family="Times,serif" font-size="14.00" fill="#000000">AccoutSettingsComponent</text>
</g>
<!-- PagesModule -->
<g id="node24" class="node">
<title>PagesModule</title>
<polygon fill="#8dd3c7" stroke="#000000" points="2037.2064,-187 2034.2064,-191 2013.2064,-191 2010.2064,-187 1944.7936,-187 1944.7936,-151 2037.2064,-151 2037.2064,-187"/>
<text text-anchor="middle" x="1991" y="-164.8" font-family="Times,serif" font-size="14.00" fill="#000000">PagesModule</text>
</g>
<!-- AccoutSettingsComponent&#45;&gt;PagesModule -->
<g id="edge1" class="edge">
<title>AccoutSettingsComponent&#45;&gt;PagesModule</title>
<path fill="none" stroke="#000000" d="M4092,-122.3228C4092,-145.6602 4092,-183 4092,-183 4092,-183 2047.331,-183 2047.331,-183"/>
<polygon fill="#000000" stroke="#000000" points="2047.331,-179.5001 2037.331,-183 2047.3309,-186.5001 2047.331,-179.5001"/>
</g>
<!-- BusquedaComponent -->
<g id="node2" class="node">
<title>BusquedaComponent</title>
<polygon fill="#ffffb3" stroke="#000000" points="3990.0436,-122 3853.9564,-122 3853.9564,-86 3990.0436,-86 3990.0436,-122"/>
<text text-anchor="middle" x="3922" y="-99.8" font-family="Times,serif" font-size="14.00" fill="#000000">BusquedaComponent</text>
</g>
<!-- BusquedaComponent&#45;&gt;PagesModule -->
<g id="edge2" class="edge">
<title>BusquedaComponent&#45;&gt;PagesModule</title>
<path fill="none" stroke="#000000" d="M3922,-122.0109C3922,-144.4852 3922,-180 3922,-180 3922,-180 2047.301,-180 2047.301,-180"/>
<polygon fill="#000000" stroke="#000000" points="2047.3011,-176.5001 2037.301,-180 2047.301,-183.5001 2047.3011,-176.5001"/>
</g>
<!-- ClienteNuevoComponent -->
<g id="node3" class="node">
<title>ClienteNuevoComponent</title>
<polygon fill="#ffffb3" stroke="#000000" points="3835.5912,-122 3676.4088,-122 3676.4088,-86 3835.5912,-86 3835.5912,-122"/>
<text text-anchor="middle" x="3756" y="-99.8" font-family="Times,serif" font-size="14.00" fill="#000000">ClienteNuevoComponent</text>
</g>
<!-- ClienteNuevoComponent&#45;&gt;PagesModule -->
<g id="edge3" class="edge">
<title>ClienteNuevoComponent&#45;&gt;PagesModule</title>
<path fill="none" stroke="#000000" d="M3756,-122.2921C3756,-144.2057 3756,-178 3756,-178 3756,-178 2047.3022,-178 2047.3022,-178"/>
<polygon fill="#000000" stroke="#000000" points="2047.3023,-174.5001 2037.3022,-178 2047.3022,-181.5001 2047.3023,-174.5001"/>
</g>
<!-- ClientesComponent -->
<g id="node4" class="node">
<title>ClientesComponent</title>
<polygon fill="#ffffb3" stroke="#000000" points="3658.7148,-122 3531.2852,-122 3531.2852,-86 3658.7148,-86 3658.7148,-122"/>
<text text-anchor="middle" x="3595" y="-99.8" font-family="Times,serif" font-size="14.00" fill="#000000">ClientesComponent</text>
</g>
<!-- ClientesComponent&#45;&gt;PagesModule -->
<g id="edge4" class="edge">
<title>ClientesComponent&#45;&gt;PagesModule</title>
<path fill="none" stroke="#000000" d="M3595,-122.2843C3595,-143.3211 3595,-175 3595,-175 3595,-175 2047.2748,-175 2047.2748,-175"/>
<polygon fill="#000000" stroke="#000000" points="2047.2748,-171.5001 2037.2748,-175 2047.2747,-178.5001 2047.2748,-171.5001"/>
</g>
<!-- DashboardComponent -->
<g id="node5" class="node">
<title>DashboardComponent</title>
<polygon fill="#ffffb3" stroke="#000000" points="3512.9734,-122 3371.0266,-122 3371.0266,-86 3512.9734,-86 3512.9734,-122"/>
<text text-anchor="middle" x="3442" y="-99.8" font-family="Times,serif" font-size="14.00" fill="#000000">DashboardComponent</text>
</g>
<!-- DashboardComponent&#45;&gt;PagesModule -->
<g id="edge5" class="edge">
<title>DashboardComponent&#45;&gt;PagesModule</title>
<path fill="none" stroke="#000000" d="M3442,-122.1289C3442,-142.5724 3442,-173 3442,-173 3442,-173 2047.2272,-173 2047.2272,-173"/>
<polygon fill="#000000" stroke="#000000" points="2047.2272,-169.5001 2037.2272,-173 2047.2272,-176.5001 2047.2272,-169.5001"/>
</g>
<!-- DataTableComponent -->
<g id="node6" class="node">
<title>DataTableComponent</title>
<polygon fill="#ffffb3" stroke="#000000" points="3352.6317,-122 3213.3683,-122 3213.3683,-86 3352.6317,-86 3352.6317,-122"/>
<text text-anchor="middle" x="3283" y="-99.8" font-family="Times,serif" font-size="14.00" fill="#000000">DataTableComponent</text>
</g>
<!-- DataTableComponent&#45;&gt;PagesModule -->
<g id="edge6" class="edge">
<title>DataTableComponent&#45;&gt;PagesModule</title>
<path fill="none" stroke="#000000" d="M3283,-122.308C3283,-142.1455 3283,-171 3283,-171 3283,-171 2047.3639,-171 2047.3639,-171"/>
<polygon fill="#000000" stroke="#000000" points="2047.3639,-167.5001 2037.3639,-171 2047.3639,-174.5001 2047.3639,-167.5001"/>
</g>
<!-- DetalleComponent -->
<g id="node7" class="node">
<title>DetalleComponent</title>
<polygon fill="#ffffb3" stroke="#000000" points="3194.7548,-122 3073.2452,-122 3073.2452,-86 3194.7548,-86 3194.7548,-122"/>
<text text-anchor="middle" x="3134" y="-99.8" font-family="Times,serif" font-size="14.00" fill="#000000">DetalleComponent</text>
</g>
<!-- DetalleComponent&#45;&gt;PagesModule -->
<g id="edge7" class="edge">
<title>DetalleComponent&#45;&gt;PagesModule</title>
<path fill="none" stroke="#000000" d="M3134,-122.1686C3134,-141.0898 3134,-168 3134,-168 3134,-168 2047.2226,-168 2047.2226,-168"/>
<polygon fill="#000000" stroke="#000000" points="2047.2226,-164.5001 2037.2226,-168 2047.2226,-171.5001 2047.2226,-164.5001"/>
</g>
<!-- EncuestasComponent -->
<g id="node8" class="node">
<title>EncuestasComponent</title>
<polygon fill="#ffffb3" stroke="#000000" points="3054.8089,-122 2917.1911,-122 2917.1911,-86 3054.8089,-86 3054.8089,-122"/>
<text text-anchor="middle" x="2986" y="-99.8" font-family="Times,serif" font-size="14.00" fill="#000000">EncuestasComponent</text>
</g>
<!-- EncuestasComponent&#45;&gt;PagesModule -->
<g id="edge8" class="edge">
<title>EncuestasComponent&#45;&gt;PagesModule</title>
<path fill="none" stroke="#000000" d="M2986,-122.2667C2986,-140.5552 2986,-166 2986,-166 2986,-166 2047.3253,-166 2047.3253,-166"/>
<polygon fill="#000000" stroke="#000000" points="2047.3254,-162.5001 2037.3253,-166 2047.3253,-169.5001 2047.3254,-162.5001"/>
</g>
<!-- Graficas1Component -->
<g id="node9" class="node">
<title>Graficas1Component</title>
<polygon fill="#ffffb3" stroke="#000000" points="2898.7395,-122 2763.2605,-122 2763.2605,-86 2898.7395,-86 2898.7395,-122"/>
<text text-anchor="middle" x="2831" y="-99.8" font-family="Times,serif" font-size="14.00" fill="#000000">Graficas1Component</text>
</g>
<!-- Graficas1Component&#45;&gt;PagesModule -->
<g id="edge9" class="edge">
<title>Graficas1Component&#45;&gt;PagesModule</title>
<path fill="none" stroke="#000000" d="M2831,-122.0225C2831,-139.3734 2831,-163 2831,-163 2831,-163 2047.3586,-163 2047.3586,-163"/>
<polygon fill="#000000" stroke="#000000" points="2047.3586,-159.5001 2037.3586,-163 2047.3585,-166.5001 2047.3586,-159.5001"/>
</g>
<!-- GraficoDonaComponent -->
<g id="node10" class="node">
<title>GraficoDonaComponent</title>
<polygon fill="#ffffb3" stroke="#000000" points="2745.4017,-122 2590.5983,-122 2590.5983,-86 2745.4017,-86 2745.4017,-122"/>
<text text-anchor="middle" x="2668" y="-99.8" font-family="Times,serif" font-size="14.00" fill="#000000">GraficoDonaComponent</text>
</g>
<!-- GraficoDonaComponent&#45;&gt;PagesModule -->
<g id="edge10" class="edge">
<title>GraficoDonaComponent&#45;&gt;PagesModule</title>
<path fill="none" stroke="#000000" d="M2668,-122.0352C2668,-138.7344 2668,-161 2668,-161 2668,-161 2047.2665,-161 2047.2665,-161"/>
<polygon fill="#000000" stroke="#000000" points="2047.2665,-157.5001 2037.2665,-161 2047.2665,-164.5001 2047.2665,-157.5001"/>
</g>
<!-- IncrementadorComponent -->
<g id="node11" class="node">
<title>IncrementadorComponent</title>
<polygon fill="#ffffb3" stroke="#000000" points="2572.4538,-122 2409.5462,-122 2409.5462,-86 2572.4538,-86 2572.4538,-122"/>
<text text-anchor="middle" x="2491" y="-99.8" font-family="Times,serif" font-size="14.00" fill="#000000">IncrementadorComponent</text>
</g>
<!-- IncrementadorComponent&#45;&gt;PagesModule -->
<g id="edge11" class="edge">
<title>IncrementadorComponent&#45;&gt;PagesModule</title>
<path fill="none" stroke="#000000" d="M2491,-122.0091C2491,-138.0494 2491,-159 2491,-159 2491,-159 2047.1426,-159 2047.1426,-159"/>
<polygon fill="#000000" stroke="#000000" points="2047.1426,-155.5001 2037.1426,-159 2047.1425,-162.5001 2047.1426,-155.5001"/>
</g>
<!-- ListadorespuestasComponent -->
<g id="node12" class="node">
<title>ListadorespuestasComponent</title>
<polygon fill="#ffffb3" stroke="#000000" points="2391.3543,-122 2210.6457,-122 2210.6457,-86 2391.3543,-86 2391.3543,-122"/>
<text text-anchor="middle" x="2301" y="-99.8" font-family="Times,serif" font-size="14.00" fill="#000000">ListadorespuestasComponent</text>
</g>
<!-- ListadorespuestasComponent&#45;&gt;PagesModule -->
<g id="edge12" class="edge">
<title>ListadorespuestasComponent&#45;&gt;PagesModule</title>
<path fill="none" stroke="#000000" d="M2217.1548,-122.1871C2217.1548,-137.1824 2217.1548,-156 2217.1548,-156 2217.1548,-156 2047.3115,-156 2047.3115,-156"/>
<polygon fill="#000000" stroke="#000000" points="2047.3116,-152.5001 2037.3115,-156 2047.3115,-159.5001 2047.3116,-152.5001"/>
</g>
<!-- NotaComponent -->
<g id="node13" class="node">
<title>NotaComponent</title>
<polygon fill="#ffffb3" stroke="#000000" points="2192.0452,-122 2083.9548,-122 2083.9548,-86 2192.0452,-86 2192.0452,-122"/>
<text text-anchor="middle" x="2138" y="-99.8" font-family="Times,serif" font-size="14.00" fill="#000000">NotaComponent</text>
</g>
<!-- NotaComponent&#45;&gt;PagesModule -->
<g id="edge13" class="edge">
<title>NotaComponent&#45;&gt;PagesModule</title>
<path fill="none" stroke="#000000" d="M2156.0907,-122.0511C2156.0907,-136.373 2156.0907,-154 2156.0907,-154 2156.0907,-154 2047.4263,-154 2047.4263,-154"/>
<polygon fill="#000000" stroke="#000000" points="2047.4263,-150.5001 2037.4263,-154 2047.4263,-157.5001 2047.4263,-150.5001"/>
</g>
<!-- NotasFormsComponent -->
<g id="node14" class="node">
<title>NotasFormsComponent</title>
<polygon fill="#ffffb3" stroke="#000000" points="2065.7674,-122 1916.2326,-122 1916.2326,-86 2065.7674,-86 2065.7674,-122"/>
<text text-anchor="middle" x="1991" y="-99.8" font-family="Times,serif" font-size="14.00" fill="#000000">NotasFormsComponent</text>
</g>
<!-- NotasFormsComponent&#45;&gt;PagesModule -->
<g id="edge14" class="edge">
<title>NotasFormsComponent&#45;&gt;PagesModule</title>
<path fill="none" stroke="#000000" d="M1991,-122.1061C1991,-122.1061 1991,-140.991 1991,-140.991"/>
<polygon fill="#000000" stroke="#000000" points="1987.5001,-140.9909 1991,-150.991 1994.5001,-140.991 1987.5001,-140.9909"/>
</g>
<!-- PagesComponent -->
<g id="node15" class="node">
<title>PagesComponent</title>
<polygon fill="#ffffb3" stroke="#000000" points="1897.9888,-122 1784.0112,-122 1784.0112,-86 1897.9888,-86 1897.9888,-122"/>
<text text-anchor="middle" x="1841" y="-99.8" font-family="Times,serif" font-size="14.00" fill="#000000">PagesComponent</text>
</g>
<!-- PagesComponent&#45;&gt;PagesModule -->
<g id="edge15" class="edge">
<title>PagesComponent&#45;&gt;PagesModule</title>
<path fill="none" stroke="#000000" d="M1859.9981,-122.0511C1859.9981,-136.373 1859.9981,-154 1859.9981,-154 1859.9981,-154 1934.8136,-154 1934.8136,-154"/>
<polygon fill="#000000" stroke="#000000" points="1934.8137,-157.5001 1944.8136,-154 1934.8136,-150.5001 1934.8137,-157.5001"/>
</g>
<!-- PanelreportesComponent -->
<g id="node16" class="node">
<title>PanelreportesComponent</title>
<polygon fill="#ffffb3" stroke="#000000" points="1765.5211,-122 1608.4789,-122 1608.4789,-86 1765.5211,-86 1765.5211,-122"/>
<text text-anchor="middle" x="1687" y="-99.8" font-family="Times,serif" font-size="14.00" fill="#000000">PanelreportesComponent</text>
</g>
<!-- PanelreportesComponent&#45;&gt;PagesModule -->
<g id="edge16" class="edge">
<title>PanelreportesComponent&#45;&gt;PagesModule</title>
<path fill="none" stroke="#000000" d="M1687,-122.1871C1687,-137.1824 1687,-156 1687,-156 1687,-156 1934.8289,-156 1934.8289,-156"/>
<polygon fill="#000000" stroke="#000000" points="1934.829,-159.5001 1944.8289,-156 1934.8289,-152.5001 1934.829,-159.5001"/>
</g>
<!-- PerfilComponent -->
<g id="node17" class="node">
<title>PerfilComponent</title>
<polygon fill="#ffffb3" stroke="#000000" points="1590.4328,-122 1477.5672,-122 1477.5672,-86 1590.4328,-86 1590.4328,-122"/>
<text text-anchor="middle" x="1534" y="-99.8" font-family="Times,serif" font-size="14.00" fill="#000000">PerfilComponent</text>
</g>
<!-- PerfilComponent&#45;&gt;PagesModule -->
<g id="edge17" class="edge">
<title>PerfilComponent&#45;&gt;PagesModule</title>
<path fill="none" stroke="#000000" d="M1534,-122.0091C1534,-138.0494 1534,-159 1534,-159 1534,-159 1934.6655,-159 1934.6655,-159"/>
<polygon fill="#000000" stroke="#000000" points="1934.6655,-162.5001 1944.6655,-159 1934.6654,-155.5001 1934.6655,-162.5001"/>
</g>
<!-- ProgressComponent -->
<g id="node18" class="node">
<title>ProgressComponent</title>
<polygon fill="#ffffb3" stroke="#000000" points="1459.5408,-122 1330.4592,-122 1330.4592,-86 1459.5408,-86 1459.5408,-122"/>
<text text-anchor="middle" x="1395" y="-99.8" font-family="Times,serif" font-size="14.00" fill="#000000">ProgressComponent</text>
</g>
<!-- ProgressComponent&#45;&gt;PagesModule -->
<g id="edge18" class="edge">
<title>ProgressComponent&#45;&gt;PagesModule</title>
<path fill="none" stroke="#000000" d="M1395,-122.0352C1395,-138.7344 1395,-161 1395,-161 1395,-161 1934.7288,-161 1934.7288,-161"/>
<polygon fill="#000000" stroke="#000000" points="1934.7289,-164.5001 1944.7288,-161 1934.7288,-157.5001 1934.7289,-164.5001"/>
</g>
<!-- PromesasComponent -->
<g id="node19" class="node">
<title>PromesasComponent</title>
<polygon fill="#ffffb3" stroke="#000000" points="1312.4846,-122 1177.5154,-122 1177.5154,-86 1312.4846,-86 1312.4846,-122"/>
<text text-anchor="middle" x="1245" y="-99.8" font-family="Times,serif" font-size="14.00" fill="#000000">PromesasComponent</text>
</g>
<!-- PromesasComponent&#45;&gt;PagesModule -->
<g id="edge19" class="edge">
<title>PromesasComponent&#45;&gt;PagesModule</title>
<path fill="none" stroke="#000000" d="M1245,-122.0225C1245,-139.3734 1245,-163 1245,-163 1245,-163 1934.6162,-163 1934.6162,-163"/>
<polygon fill="#000000" stroke="#000000" points="1934.6163,-166.5001 1944.6162,-163 1934.6162,-159.5001 1934.6163,-166.5001"/>
</g>
<!-- ReportesComponent -->
<g id="node20" class="node">
<title>ReportesComponent</title>
<polygon fill="#ffffb3" stroke="#000000" points="1159.594,-122 1028.406,-122 1028.406,-86 1159.594,-86 1159.594,-122"/>
<text text-anchor="middle" x="1094" y="-99.8" font-family="Times,serif" font-size="14.00" fill="#000000">ReportesComponent</text>
</g>
<!-- ReportesComponent&#45;&gt;PagesModule -->
<g id="edge20" class="edge">
<title>ReportesComponent&#45;&gt;PagesModule</title>
<path fill="none" stroke="#000000" d="M1094,-122.2667C1094,-140.5552 1094,-166 1094,-166 1094,-166 1934.6622,-166 1934.6622,-166"/>
<polygon fill="#000000" stroke="#000000" points="1934.6623,-169.5001 1944.6622,-166 1934.6622,-162.5001 1934.6623,-169.5001"/>
</g>
<!-- TareaComponent -->
<g id="node21" class="node">
<title>TareaComponent</title>
<polygon fill="#ffffb3" stroke="#000000" points="1010.6896,-122 897.3104,-122 897.3104,-86 1010.6896,-86 1010.6896,-122"/>
<text text-anchor="middle" x="954" y="-99.8" font-family="Times,serif" font-size="14.00" fill="#000000">TareaComponent</text>
</g>
<!-- TareaComponent&#45;&gt;PagesModule -->
<g id="edge21" class="edge">
<title>TareaComponent&#45;&gt;PagesModule</title>
<path fill="none" stroke="#000000" d="M954,-122.1686C954,-141.0898 954,-168 954,-168 954,-168 1934.7661,-168 1934.7661,-168"/>
<polygon fill="#000000" stroke="#000000" points="1934.7661,-171.5001 1944.7661,-168 1934.766,-164.5001 1934.7661,-171.5001"/>
</g>
<!-- UsuariodetalleComponent -->
<g id="node22" class="node">
<title>UsuariodetalleComponent</title>
<polygon fill="#ffffb3" stroke="#000000" points="879.465,-122 716.535,-122 716.535,-86 879.465,-86 879.465,-122"/>
<text text-anchor="middle" x="798" y="-99.8" font-family="Times,serif" font-size="14.00" fill="#000000">UsuariodetalleComponent</text>
</g>
<!-- UsuariodetalleComponent&#45;&gt;PagesModule -->
<g id="edge22" class="edge">
<title>UsuariodetalleComponent&#45;&gt;PagesModule</title>
<path fill="none" stroke="#000000" d="M798,-122.308C798,-142.1455 798,-171 798,-171 798,-171 1934.5991,-171 1934.5991,-171"/>
<polygon fill="#000000" stroke="#000000" points="1934.5992,-174.5001 1944.5991,-171 1934.5991,-167.5001 1934.5992,-174.5001"/>
</g>
<!-- UsuariosComponent -->
<g id="node23" class="node">
<title>UsuariosComponent</title>
<polygon fill="#ffffb3" stroke="#000000" points="698.594,-122 567.406,-122 567.406,-86 698.594,-86 698.594,-122"/>
<text text-anchor="middle" x="633" y="-99.8" font-family="Times,serif" font-size="14.00" fill="#000000">UsuariosComponent</text>
</g>
<!-- UsuariosComponent&#45;&gt;PagesModule -->
<g id="edge23" class="edge">
<title>UsuariosComponent&#45;&gt;PagesModule</title>
<path fill="none" stroke="#000000" d="M633,-122.1289C633,-142.5724 633,-173 633,-173 633,-173 1934.6474,-173 1934.6474,-173"/>
<polygon fill="#000000" stroke="#000000" points="1934.6475,-176.5001 1944.6474,-173 1934.6474,-169.5001 1934.6475,-176.5001"/>
</g>
<!-- DashboardComponent  -->
<g id="node29" class="node">
<title>DashboardComponent </title>
<polygon fill="#fb8072" stroke="#000000" points="2223.9742,-252 2078.0258,-252 2078.0258,-216 2223.9742,-216 2223.9742,-252"/>
<text text-anchor="middle" x="2151" y="-229.8" font-family="Times,serif" font-size="14.00" fill="#000000">DashboardComponent </text>
</g>
<!-- PagesModule&#45;&gt;DashboardComponent  -->
<g id="edge28" class="edge">
<title>PagesModule&#45;&gt;DashboardComponent </title>
<path fill="none" stroke="#000000" stroke-dasharray="5,2" d="M2037.1751,-185C2074.1643,-185 2119.9093,-185 2119.9093,-185 2119.9093,-185 2119.9093,-205.7542 2119.9093,-205.7542"/>
<polygon fill="#000000" stroke="#000000" points="2116.4094,-205.7542 2119.9093,-215.7542 2123.4094,-205.7542 2116.4094,-205.7542"/>
</g>
<!-- Graficas1Component  -->
<g id="node30" class="node">
<title>Graficas1Component </title>
<polygon fill="#fb8072" stroke="#000000" points="2060.7394,-252 1921.2606,-252 1921.2606,-216 2060.7394,-216 2060.7394,-252"/>
<text text-anchor="middle" x="1991" y="-229.8" font-family="Times,serif" font-size="14.00" fill="#000000">Graficas1Component </text>
</g>
<!-- PagesModule&#45;&gt;Graficas1Component  -->
<g id="edge29" class="edge">
<title>PagesModule&#45;&gt;Graficas1Component </title>
<path fill="none" stroke="#000000" stroke-dasharray="5,2" d="M1991,-187.1061C1991,-187.1061 1991,-205.991 1991,-205.991"/>
<polygon fill="#000000" stroke="#000000" points="1987.5001,-205.9909 1991,-215.991 1994.5001,-205.991 1987.5001,-205.9909"/>
</g>
<!-- ProgressComponent  -->
<g id="node31" class="node">
<title>ProgressComponent </title>
<polygon fill="#fb8072" stroke="#000000" points="1903.54,-252 1770.46,-252 1770.46,-216 1903.54,-216 1903.54,-252"/>
<text text-anchor="middle" x="1837" y="-229.8" font-family="Times,serif" font-size="14.00" fill="#000000">ProgressComponent </text>
</g>
<!-- PagesModule&#45;&gt;ProgressComponent  -->
<g id="edge30" class="edge">
<title>PagesModule&#45;&gt;ProgressComponent </title>
<path fill="none" stroke="#000000" stroke-dasharray="5,2" d="M1944.8205,-185C1894.7833,-185 1822.0019,-185 1822.0019,-185 1822.0019,-185 1822.0019,-205.7542 1822.0019,-205.7542"/>
<polygon fill="#000000" stroke="#000000" points="1818.502,-205.7542 1822.0019,-215.7542 1825.502,-205.7542 1818.502,-205.7542"/>
</g>
<!-- DemoMaterialModule -->
<g id="node25" class="node">
<title>DemoMaterialModule</title>
<polygon fill="#8dd3c7" stroke="#000000" points="542.6825,-122 539.6825,-126 518.6825,-126 515.6825,-122 401.3175,-122 401.3175,-86 542.6825,-86 542.6825,-122"/>
<text text-anchor="middle" x="472" y="-99.8" font-family="Times,serif" font-size="14.00" fill="#000000">DemoMaterialModule</text>
</g>
<!-- DemoMaterialModule&#45;&gt;PagesModule -->
<g id="edge24" class="edge">
<title>DemoMaterialModule&#45;&gt;PagesModule</title>
<path fill="none" stroke="#000000" d="M472,-122.2843C472,-143.3211 472,-175 472,-175 472,-175 1934.7099,-175 1934.7099,-175"/>
<polygon fill="#000000" stroke="#000000" points="1934.71,-178.5001 1944.7099,-175 1934.7099,-171.5001 1934.71,-178.5001"/>
</g>
<!-- DemoUtilsModule -->
<g id="node26" class="node">
<title>DemoUtilsModule</title>
<polygon fill="#8dd3c7" stroke="#000000" points="383.4846,-122 380.4846,-126 359.4846,-126 356.4846,-122 262.5154,-122 262.5154,-86 383.4846,-86 383.4846,-122"/>
<text text-anchor="middle" x="323" y="-99.8" font-family="Times,serif" font-size="14.00" fill="#000000">DemoUtilsModule</text>
</g>
<!-- DemoUtilsModule&#45;&gt;PagesModule -->
<g id="edge25" class="edge">
<title>DemoUtilsModule&#45;&gt;PagesModule</title>
<path fill="none" stroke="#000000" d="M323,-122.2921C323,-144.2057 323,-178 323,-178 323,-178 1934.6472,-178 1934.6472,-178"/>
<polygon fill="#000000" stroke="#000000" points="1934.6473,-181.5001 1944.6472,-178 1934.6472,-174.5001 1934.6473,-181.5001"/>
</g>
<!-- EncuestaModule -->
<g id="node27" class="node">
<title>EncuestaModule</title>
<polygon fill="#8dd3c7" stroke="#000000" points="244.0814,-122 241.0814,-126 220.0814,-126 217.0814,-122 133.9186,-122 133.9186,-86 244.0814,-86 244.0814,-122"/>
<text text-anchor="middle" x="189" y="-99.8" font-family="Times,serif" font-size="14.00" fill="#000000">EncuestaModule</text>
</g>
<!-- EncuestaModule&#45;&gt;PagesModule -->
<g id="edge26" class="edge">
<title>EncuestaModule&#45;&gt;PagesModule</title>
<path fill="none" stroke="#000000" d="M189,-122.0109C189,-144.4852 189,-180 189,-180 189,-180 1934.6451,-180 1934.6451,-180"/>
<polygon fill="#000000" stroke="#000000" points="1934.6451,-183.5001 1944.6451,-180 1934.645,-176.5001 1934.6451,-183.5001"/>
</g>
<!-- ShareModule -->
<g id="node28" class="node">
<title>ShareModule</title>
<polygon fill="#8dd3c7" stroke="#000000" points="115.9232,-122 112.9232,-126 91.9232,-126 88.9232,-122 24.0768,-122 24.0768,-86 115.9232,-86 115.9232,-122"/>
<text text-anchor="middle" x="70" y="-99.8" font-family="Times,serif" font-size="14.00" fill="#000000">ShareModule</text>
</g>
<!-- ShareModule&#45;&gt;PagesModule -->
<g id="edge27" class="edge">
<title>ShareModule&#45;&gt;PagesModule</title>
<path fill="none" stroke="#000000" d="M70,-122.3228C70,-145.6602 70,-183 70,-183 70,-183 1934.4662,-183 1934.4662,-183"/>
<polygon fill="#000000" stroke="#000000" points="1934.4662,-186.5001 1944.4662,-183 1934.4661,-179.5001 1934.4662,-186.5001"/>
</g>
</g>
</svg>
